<?xml version="1.0" encoding="utf-8"?>
<!-- Generator: Adobe Illustrator 16.0.0, SVG Export Plug-In . SVG Version: 6.00 Build 0)  -->
<!DOCTYPE svg PUBLIC "-//W3C//DTD SVG 1.1//EN" "http://www.w3.org/Graphics/SVG/1.1/DTD/svg11.dtd">
<svg version="1.1" id="Ebene_1" xmlns="http://www.w3.org/2000/svg" xmlns:xlink="http://www.w3.org/1999/xlink" x="0px" y="0px"
	 width="1001px" height="1001px" viewBox="0 0 1001 1001" style="enable-background:new 0 0 1001 1001;" xml:space="preserve">
<style type="text/css">
<![CDATA[
	.st0{clip-path:url(#SVGID_2_);}
	.st1{clip-path:url(#SVGID_4_);}
	.st2{clip-path:url(#SVGID_6_);}
	.st3{clip-path:url(#SVGID_8_);}
	.st4{clip-path:url(#SVGID_2_);fill:#FFFFFF;}
	.st5{clip-path:url(#SVGID_2_);fill:none;stroke:#FFFFFF;stroke-width:2;}
	.st6{clip-path:url(#SVGID_2_);fill:none;stroke:#FFFFFF;stroke-width:7;}
	.st7{clip-path:url(#SVGID_2_);fill:#006EB8;}
]]>
</style>
<g>
	<defs>
		<rect id="SVGID_1_" width="1001" height="1001"/>
	</defs>
	<clipPath id="SVGID_2_">
		<use xlink:href="#SVGID_1_"  style="overflow:visible;"/>
	</clipPath>
	<path class="st4" d="M500.5,1000c275.87,0,499.5-223.63,499.5-499.5S776.37,1,500.5,1S1,224.63,1,500.5S224.63,1000,500.5,1000"/>
	<circle class="st5" cx="500.5" cy="500.5" r="499.5"/>
	<path class="st7" d="M165.51,975.93c60.38,0,109.51-49.13,109.51-109.51c0-60.38-49.13-109.51-109.51-109.51
		C105.13,756.91,56,806.04,56,866.42C56,926.81,105.13,975.93,165.51,975.93"/>
	<path class="st6" d="M165.51,975.93c60.38,0,109.51-49.13,109.51-109.51c0-60.38-49.13-109.51-109.51-109.51
		C105.13,756.91,56,806.04,56,866.42C56,926.81,105.13,975.93,165.51,975.93z"/>
	<path class="st4" d="M119.61,844.46h-1.49v10.39h-0.04c-0.88-1.3-5.68-7-8.54-10.39h-1.34v13.03h1.49v-10.37h0.04
		c0.78,1.14,5.64,6.98,8.47,10.37h1.42V844.46z M129.81,844.46h-6.42v13.03h7.22v-1.3h-5.42v-4.92h4.52v-1.3h-4.52v-4.21h4.62
		V844.46z M142.84,857.31l-4.77-7.09l3.57-5.71l-1.67-0.22L137.2,849l-3.03-4.73l-1.92,0.41l3.87,5.72l-4.24,6.94l1.66,0.33
		l3.5-6.07l3.85,6.07L142.84,857.31z M149.33,857.49v-11.73h4.19v-1.3h-10.16v1.3h4.17v11.73H149.33z M161.88,844.46h-6.42v13.03
		h7.22v-1.3h-5.42v-4.92h4.52v-1.3h-4.52v-4.21h4.62V844.46z M167.17,845.77h1.54c1.21,0,2.21,0.62,2.21,2.22
		c0,1.1-0.43,2.81-2.74,2.81h-1.02V845.77z M165.36,857.49h1.81v-5.4h1.92l3.02,5.62l1.82-0.56l-3.24-5.55
		c1.25-0.8,2.18-1.88,2.18-3.8c0-2.25-1.66-3.35-3.78-3.35h-3.72V857.49z M176.36,857.49h1.81v-13.03h-1.81V857.49z M187.04,857.72
		c4.02,0,6.51-3.07,6.51-6.96c0-3.65-2.75-6.51-6.51-6.51s-6.52,2.87-6.52,6.51C180.53,854.65,183.02,857.72,187.04,857.72
		 M187.04,856.41c-3.37,0-4.52-3.11-4.52-5.66c0-2.44,1.3-5.21,4.52-5.21c3.22,0,4.52,2.77,4.52,5.21
		C191.57,853.3,190.41,856.41,187.04,856.41 M207.71,844.46h-1.49v10.39h-0.04c-0.88-1.3-5.68-7-8.54-10.39h-1.34v13.03h1.49v-10.37
		h0.04c0.78,1.14,5.64,6.98,8.47,10.37h1.41V844.46z M212.9,845.67h0.68c0.51,0,0.97,0.2,0.97,0.71c0,0.36-0.21,0.91-1.19,0.91
		h-0.46V845.67z M212.14,849.45h0.76v-1.74h0.84l1.3,1.81l0.77-0.18l-1.38-1.79c0.53-0.25,0.93-0.61,0.93-1.22
		c0-0.72-0.72-1.08-1.63-1.08h-1.59V849.45z M213.67,851.42c2.12,0,3.84-1.77,3.84-3.94c0-2.15-1.72-3.92-3.84-3.92
		c-2.13,0-3.85,1.77-3.85,3.92C209.82,849.65,211.54,851.42,213.67,851.42 M213.67,850.8c-1.74,0-3.18-1.53-3.18-3.31
		c0-1.77,1.44-3.29,3.18-3.29c1.74,0,3.17,1.52,3.17,3.29C216.84,849.26,215.41,850.8,213.67,850.8"/>
	<path class="st4" d="M86.26,871.62h-5.82v11.81h1.64v-4.96h4.1v-1.18h-4.1v-4.49h4.18V871.62z M94.45,883.42h1.5v-8.43h-1.52v4.93
		c0,1.64-0.96,2.6-2.13,2.6c-1.37,0-2.04-0.85-2.04-2.43v-5.09h-1.52v5.43c0,2.13,1.05,3.21,2.99,3.21c1.1,0,1.86-0.44,2.72-1.18
		V883.42z M100.74,872.46l-1.52,0.5v2.02h-1.18v0.88h1.18v5.06c0,1.72,0.81,2.7,2.5,2.7c0.57,0,1.2-0.2,1.72-0.54l-0.37-0.84
		c-0.29,0.15-0.61,0.29-1.16,0.29c-0.93,0-1.16-0.71-1.16-1.89v-4.77h2.21v-0.88h-2.21V872.46z M110.74,883.42h1.5v-8.43h-1.52v4.93
		c0,1.64-0.96,2.6-2.13,2.6c-1.37,0-2.04-0.85-2.04-2.43v-5.09h-1.52v5.43c0,2.13,1.05,3.21,2.99,3.21c1.1,0,1.86-0.44,2.72-1.18
		V883.42z M116.64,874.99h-1.48v8.43h1.52v-4.54c0-1.87,0.64-2.65,1.42-2.65c0.39,0,0.76,0.17,1.13,0.35l0.69-0.98
		c-0.47-0.56-1.03-0.83-1.4-0.83c-0.35,0-0.91,0.25-1.26,0.61l-0.61,0.64V874.99z M128.13,879.31c0.17-2.21-0.69-4.52-3.26-4.52
		c-1.91,0-4,1.33-4,4.25c0,2.97,1.74,4.59,4.37,4.59c0.88,0,1.92-0.36,2.8-0.98l-0.44-0.83c-0.59,0.44-1.54,0.73-2.31,0.73
		c-1.67,0-2.87-1.55-2.85-3.24H128.13z M122.55,878.3c0.05-1.08,0.69-2.43,2.31-2.43c1.33,0,1.89,1.11,1.89,2.43H122.55z
		 M135.69,883.42h1.52v-8.43h-1.52V883.42z M136.45,873.24c0.74,0,0.96-0.57,0.96-1.03c0-0.42-0.35-0.89-0.96-0.89
		c-0.61,0-0.96,0.47-0.96,0.89C135.49,872.66,135.71,873.24,136.45,873.24 M141.63,874.99h-1.5v8.43h1.52v-5.08
		c0-1.62,1.1-2.45,2.29-2.45c1.37,0,2.04,0.83,2.04,2.41v5.11h1.52v-5.43c0-2.13-1.05-3.21-2.99-3.21c-0.88,0-2.09,0.4-2.88,1.25
		V874.99z M154.58,875.24l3.31,7.71c-1.2,3.34-1.94,3.61-2.99,3.61h-0.59v1.08h0.76c1.45,0,2.5-0.94,3.29-2.73l4.33-9.77l-1.33-0.32
		c-0.89,2.14-1.77,4.3-2.65,6.85h-0.03c-0.84-2.55-1.72-4.71-2.58-6.85L154.58,875.24z M168.03,883.63c2.5,0,4.17-1.91,4.17-4.52
		c0-2.73-2.04-4.32-4.17-4.32s-4.15,1.59-4.15,4.32C163.88,881.72,165.55,883.63,168.03,883.63 M168.03,875.87
		c1.91,0,2.53,1.72,2.53,3.24c0,1.59-0.54,3.44-2.53,3.44c-1.97,0-2.51-1.86-2.51-3.44C165.51,877.59,166.14,875.87,168.03,875.87
		 M180.17,883.42h1.5v-8.43h-1.52v4.93c0,1.64-0.96,2.6-2.13,2.6c-1.37,0-2.04-0.85-2.04-2.43v-5.09h-1.52v5.43
		c0,2.13,1.05,3.21,2.99,3.21c1.1,0,1.85-0.44,2.71-1.18V883.42z M186.07,874.99h-1.48v8.43h1.52v-4.54c0-1.87,0.64-2.65,1.42-2.65
		c0.39,0,0.76,0.17,1.13,0.35l0.69-0.98c-0.47-0.56-1.03-0.83-1.4-0.83c-0.35,0-0.91,0.25-1.27,0.61l-0.61,0.64V874.99z
		 M197.65,871.03h-1.5v12.4h1.52v-5.08c0-1.62,1.1-2.45,2.29-2.45c1.37,0,2.04,0.83,2.04,2.41v5.11h1.52v-5.43
		c0-2.13-1.05-3.21-2.99-3.21c-0.88,0-2.09,0.4-2.88,1.25V871.03z M210.9,881.99c0,0.54,0.03,1.08,0.24,1.43h1.65
		c-0.29-0.61-0.37-1.42-0.37-2.06v-3.71c0-2.46-1.86-2.87-3.12-2.87c-1.18,0-2.04,0.34-2.88,1.15l0.59,0.76
		c0.61-0.51,1.23-0.91,2.21-0.91c0.83,0,1.62,0.66,1.69,1.69l-2.04,0.64c-1.75,0.52-3,1.45-3,2.92c0,1.59,0.98,2.6,2.4,2.6
		c0.78,0,1.52-0.52,2.11-1.11L210.9,881.99z M210.9,878.48c0.2,2.63-1.18,3.96-2.26,3.96c-0.61,0-1.21-0.56-1.21-1.43
		c0-1.06,0.69-1.7,2.03-2.11L210.9,878.48z M216.79,874.99h-1.5v8.43h1.52v-5.08c0-1.62,1.1-2.45,2.29-2.45
		c1.37,0,2.04,0.83,2.04,2.41v5.11h1.52v-5.43c0-2.13-1.04-3.21-2.98-3.21c-0.88,0-2.09,0.4-2.89,1.25V874.99z M229.02,882.55
		c-1.6,0-2.38-1.7-2.38-3.51c0-1.79,0.73-3.17,2.48-3.17c1.65,0,2.51,1.49,2.51,3.07C231.64,880.81,230.86,882.55,229.02,882.55
		 M231.64,883.42h1.52v-12.4h-1.52v5.01h-0.03c-0.52-0.81-1.55-1.25-2.7-1.25c-2.31,0-3.9,2.13-3.9,4.32c0,2.7,1.45,4.52,3.73,4.52
		c1.38,0,2.28-0.71,2.87-1.54h0.03V883.42z M240.59,875.56c-0.44-0.44-1.25-0.78-2.08-0.78c-1.49,0-2.8,0.84-2.8,2.18
		c0,1.15,0.84,1.72,1.8,2.41c0.79,0.57,1.67,1,1.67,1.97c0,0.83-0.72,1.2-1.43,1.2c-0.67,0-1.33-0.39-1.82-0.84l-0.74,0.86
		c0.56,0.64,1.64,1.06,2.6,1.06c1.55,0,2.95-0.96,2.95-2.38c0-1.18-0.71-1.87-1.79-2.7c-0.96-0.72-1.74-1.08-1.74-1.79
		s0.69-0.96,1.23-0.96c0.46,0,0.95,0.14,1.55,0.54L240.59,875.56z M243.11,882.55c0,0.59,0.5,1.08,1.1,1.08
		c0.56,0,1.06-0.52,1.06-1.08c0-0.57-0.5-1.08-1.08-1.08C243.61,881.47,243.11,881.96,243.11,882.55"/>
	<path class="st0" d="M377.45,853.43h1.6c1.74,0,3.05-0.92,3.05-2.68c0-1.85-1.36-2.63-3.07-2.63h-1.58V853.43z M377.45,846.19h0.98
		c1.8,0,3.03-1.17,3.03-2.63c0-1.4-1.02-2-2.38-2h-1.63V846.19z M374.31,855.37v-15.75h5.63c2.63,0,4.47,1.21,4.47,3.35
		c0,2.52-2.03,3.55-3.12,3.85v0.04c1.94,0.09,4.1,1.44,4.1,3.85c0,2.72-2.25,4.66-5.92,4.66H374.31z"/>
	<path class="st0" d="M391.32,855.37h-2.96v-11.25h2.96V855.37z M388.07,840.74c0-0.85,0.71-1.73,1.71-1.73
		c1.02,0,1.83,0.85,1.83,1.73c0,0.97-0.69,1.89-1.78,1.89C388.78,842.63,388.07,841.71,388.07,840.74"/>
	<path class="st0" d="M402.7,849.61c0-1.87-0.65-4.09-2.72-4.09c-2.03,0-2.69,2.23-2.69,4.09c0,1.98,0.58,4.37,2.69,4.37
		C402.14,853.97,402.7,851.59,402.7,849.61 M394.15,849.61c0-3.64,2.85-5.76,5.83-5.76c3.01,0,5.86,2.12,5.86,5.76
		c0,3.49-2.36,6.03-5.86,6.03C396.51,855.64,394.15,853.1,394.15,849.61"/>
</g>
<rect x="408.11" y="849.04" width="5.54" height="1.94"/>
<g>
	<defs>
		<rect id="SVGID_3_" width="1001" height="1001"/>
	</defs>
	<clipPath id="SVGID_4_">
		<use xlink:href="#SVGID_3_"  style="overflow:visible;"/>
	</clipPath>
	<path class="st1" d="M419.47,846.1h0.04l0.6-0.88c0.36-0.47,1-1.37,1.92-1.37c0.67,0,1.38,0.36,2,1.01l-1.11,2.07
		c-0.49-0.25-0.8-0.38-1.4-0.38c-1.02,0-2.03,0.83-2.03,3.26v5.56h-2.96v-11.25h2.94V846.1z"/>
	<path class="st1" d="M432.88,848.39c0.11-1.71-0.49-2.88-1.96-2.88c-1.69,0-2.45,1.37-2.43,2.88H432.88z M428.45,850.01
		c-0.07,2.11,1.4,3.69,3.25,3.69c1.09,0,2.25-0.38,2.98-0.9l0.85,1.58c-1.51,0.9-3.09,1.26-4.36,1.26c-3.36,0-5.88-2.41-5.88-6.12
		c0-3.46,2.49-5.67,5.68-5.67c3.47,0,4.92,2.81,4.7,6.17H428.45z"/>
	<path class="st1" d="M443.08,849.38c-1.45,0.45-2.18,1.3-2.18,2.59c0,0.99,0.62,1.66,1.34,1.66c1.18,0,2.72-1.48,2.49-4.79
		L443.08,849.38z M444.01,854.29c-0.82,0.65-1.83,1.35-2.85,1.35c-1.74,0-3.18-1.35-3.18-3.42c0-2.14,1.54-3.35,4.12-4.09l2.63-0.79
		c-0.16-1.04-1.07-1.69-2.03-1.69c-1.27,0-2.16,0.47-2.94,1.15l-0.96-1.42c1.38-1.15,2.74-1.53,4.27-1.53
		c2.05,0,4.56,0.68,4.56,4.19v4.59c0,0.9,0.11,1.96,0.47,2.75h-3.14c-0.22-0.38-0.29-1.04-0.29-1.64L444.01,854.29z"/>
	<path class="st1" d="M453.45,849.54c0,2.18,0.85,4.3,2.56,4.3c1.98,0,2.83-2.16,2.83-4.41c0-1.96-0.91-3.78-2.69-3.78
		C454.23,845.65,453.45,847.36,453.45,849.54 M458.84,853.75h-0.04c-0.73,0.94-1.89,1.89-3.63,1.89c-2.92,0-4.85-2.43-4.85-6.03
		c0-2.92,2.09-5.76,5.08-5.76c1.45,0,2.74,0.58,3.41,1.58h0.04v-6.59h2.96v16.54h-2.96V853.75z"/>
	<path class="st1" d="M466.77,843.89c0.96,2.59,1.94,5.2,2.87,8.32h0.04c1-3.13,2.03-5.74,3.05-8.32l2.52,0.47l-5.5,12.51
		c-0.6,1.37-1.98,4.12-4.88,4.12h-1.25v-2h0.78c1.36,0,2.45-0.58,3.63-4.32l-4.23-10.24L466.77,843.89z"/>
	<path class="st1" d="M492.8,854.76c-0.94,0.56-2.16,0.88-3.16,0.88c-4.63,0-6.14-3.56-6.14-5.85c0-3.15,2.36-5.94,6.3-5.94
		c0.89,0,1.98,0.23,2.89,0.76l-0.71,1.73c-0.31-0.13-0.64-0.25-0.98-0.34s-0.67-0.13-1-0.13c-1.67,0-3.36,1.15-3.36,3.76
		c0,2.25,1.27,3.98,3.38,3.98c0.69,0,1.45-0.16,2.18-0.56L492.8,854.76z"/>
	<path class="st1" d="M503.12,849.61c0-1.87-0.65-4.09-2.72-4.09c-2.03,0-2.69,2.23-2.69,4.09c0,1.98,0.58,4.37,2.69,4.37
		C502.56,853.97,503.12,851.59,503.12,849.61 M494.57,849.61c0-3.64,2.85-5.76,5.83-5.76c3,0,5.86,2.12,5.86,5.76
		c0,3.49-2.36,6.03-5.86,6.03C496.93,855.64,494.57,853.1,494.57,849.61"/>
	<path class="st1" d="M512.02,845.45c1-1.08,2.41-1.6,3.81-1.6c2.6,0,3.99,1.44,3.99,4.28v7.24h-2.96v-6.91
		c0-1.57-0.69-2.61-2.23-2.61c-1.45,0-2.58,0.97-2.58,2.81v6.7h-2.96v-11.25h2.94V845.45z"/>
	<path class="st1" d="M529.33,846.23c-0.67-0.49-1.36-0.72-1.89-0.72c-0.67,0-1.34,0.38-1.34,1.15c0,0.9,1.07,1.42,2.31,2.34
		c1.58,1.19,2.05,2.36,2.05,3.4c0,1.58-1.71,3.24-4.16,3.24c-1.54,0-2.67-0.54-3.72-1.28l0.93-1.55c0.67,0.54,1.63,1.08,2.43,1.08
		c0.85,0,1.6-0.45,1.6-1.4c0-1.06-1.16-1.64-2.23-2.41c-1.27-0.88-2.14-1.73-2.14-3.13c0-1.78,1.69-3.11,3.87-3.11
		c1.22,0,2.43,0.31,3.23,1.04L529.33,846.23z"/>
	<path class="st1" d="M540.4,853.97c-1.05,1.06-2.14,1.67-3.54,1.67c-2.38,0-3.76-1.44-3.76-4.28v-7.24h2.96v6.82
		c0,1.57,0.69,2.61,2.09,2.61c1.02,0,2.23-0.88,2.23-2.92v-6.5h2.96v11.25h-2.94V853.97z"/>
	<path class="st1" d="M549.75,845.45h0.05c0.76-1.01,2.2-1.6,3.52-1.6c1.4,0,2.61,0.56,3.27,1.6c0.93-0.9,2.38-1.58,3.7-1.6
		c2.52-0.02,3.83,1.53,3.87,4.12v7.38h-2.96v-6.84c0-1.31-0.44-2.66-1.91-2.66c-1.42,0-2.31,0.85-2.31,2.81v6.7H554v-6.86
		c0-1.58-0.69-2.66-1.96-2.66c-1.4,0-2.27,0.97-2.27,2.88v6.64h-2.96v-11.25h2.94V845.45z"/>
	<path class="st1" d="M572.18,849.38c-1.45,0.45-2.18,1.3-2.18,2.59c0,0.99,0.62,1.66,1.33,1.66c1.18,0,2.72-1.48,2.5-4.79
		L572.18,849.38z M573.11,854.29c-0.82,0.65-1.83,1.35-2.85,1.35c-1.74,0-3.18-1.35-3.18-3.42c0-2.14,1.54-3.35,4.12-4.09l2.63-0.79
		c-0.16-1.04-1.07-1.69-2.03-1.69c-1.27,0-2.16,0.47-2.94,1.15l-0.96-1.42c1.38-1.15,2.74-1.53,4.27-1.53
		c2.05,0,4.57,0.68,4.57,4.19v4.59c0,0.9,0.11,1.96,0.47,2.75h-3.14c-0.22-0.38-0.29-1.04-0.29-1.64L573.11,854.29z"/>
	<path class="st1" d="M583.02,849.88c0,2.05,0.8,3.96,2.8,3.96c1.89,0,2.56-2.34,2.56-4.32c0-1.93-0.84-3.87-2.51-3.87
		C584,845.65,583.02,847.29,583.02,849.88 M580.06,838.83h2.96v6.84h0.04c0.78-1.15,2.2-1.82,3.54-1.82c3.52,0,4.92,3.17,4.92,5.65
		c0,3.22-2,6.14-5.16,6.14c-1.38,0-2.52-0.67-3.34-1.67v1.39h-2.96V838.83z"/>
</g>
<rect x="594.38" y="838.83" width="2.96" height="16.54"/>
<g>
	<defs>
		<rect id="SVGID_5_" width="1001" height="1001"/>
	</defs>
	<clipPath id="SVGID_6_">
		<use xlink:href="#SVGID_5_"  style="overflow:visible;"/>
	</clipPath>
	<path class="st2" d="M607.79,848.39c0.11-1.71-0.49-2.88-1.96-2.88c-1.69,0-2.45,1.37-2.43,2.88H607.79z M603.35,850.01
		c-0.07,2.11,1.4,3.69,3.25,3.69c1.09,0,2.25-0.38,2.98-0.9l0.85,1.58c-1.51,0.9-3.1,1.26-4.36,1.26c-3.36,0-5.88-2.41-5.88-6.12
		c0-3.46,2.49-5.67,5.68-5.67c3.47,0,4.92,2.81,4.7,6.17H603.35z"/>
	<path class="st2" d="M619.48,846.23c-0.67-0.49-1.36-0.72-1.89-0.72c-0.67,0-1.33,0.38-1.33,1.15c0,0.9,1.07,1.42,2.31,2.34
		c1.58,1.19,2.05,2.36,2.05,3.4c0,1.58-1.71,3.24-4.16,3.24c-1.54,0-2.67-0.54-3.72-1.28l0.93-1.55c0.67,0.54,1.63,1.08,2.43,1.08
		c0.85,0,1.6-0.45,1.6-1.4c0-1.06-1.16-1.64-2.23-2.41c-1.27-0.88-2.14-1.73-2.14-3.13c0-1.78,1.69-3.11,3.87-3.11
		c1.22,0,2.43,0.31,3.23,1.04L619.48,846.23z"/>
	<path class="st2" d="M625.05,852.26c0.87,0,1.65,0.79,1.65,1.69c0,0.88-0.78,1.69-1.63,1.69c-0.93,0-1.71-0.77-1.71-1.69
		S624.13,852.26,625.05,852.26"/>
	<path class="st2" d="M381.32,871.21c-0.73-0.61-2.4-1.37-4.07-1.37c-3.85,0-6.12,2.79-6.12,6.48c0,3.98,2.71,6.66,6.12,6.66
		c1.69,0,3.03-0.54,3.94-1.17l0.84,1.31c-1.05,0.72-2.89,1.44-4.9,1.44c-5.57,0-8.39-3.85-8.39-8.19c0-3.96,3.07-8.1,8.66-8.1
		c2.23,0,3.79,0.79,4.81,1.6L381.32,871.21z"/>
	<path class="st2" d="M392.43,882.98c-1.13,0.99-2.14,1.58-3.58,1.58c-2.56,0-3.94-1.44-3.94-4.28v-7.24h2v6.79
		c0,2.11,0.89,3.24,2.69,3.24c1.54,0,2.8-1.28,2.8-3.46v-6.57h2v11.25h-1.98V882.98z"/>
	<path class="st2" d="M403.37,874.84c-0.8-0.54-1.45-0.72-2.05-0.72c-0.71,0-1.63,0.34-1.63,1.29c0,0.94,1.02,1.42,2.29,2.38
		c1.42,1.1,2.36,2.03,2.36,3.6c0,1.89-1.85,3.17-3.89,3.17c-1.27,0-2.69-0.56-3.43-1.42l0.98-1.15c0.65,0.61,1.51,1.13,2.4,1.13
		c0.93,0,1.89-0.5,1.89-1.6c0-1.31-1.16-1.87-2.2-2.63c-1.27-0.92-2.38-1.69-2.38-3.22c0-1.78,1.74-2.9,3.7-2.9
		c1.09,0,2.16,0.45,2.74,1.04L403.37,874.84z"/>
	<path class="st2" d="M409.72,873.04h2.92v1.17h-2.92v6.37c0,1.58,0.31,2.52,1.54,2.52c0.74,0,1.16-0.18,1.54-0.38l0.49,1.12
		c-0.69,0.45-1.51,0.72-2.27,0.72c-2.23,0-3.29-1.31-3.29-3.6v-6.75h-1.56v-1.17h1.56v-2.7l2-0.68V873.04z"/>
	<path class="st2" d="M416.78,878.53c0,2.12,0.71,4.59,3.32,4.59c2.63,0,3.34-2.48,3.34-4.59c0-2.02-0.82-4.32-3.34-4.32
		C417.6,874.21,416.78,876.5,416.78,878.53 M414.62,878.53c0-3.64,2.67-5.76,5.48-5.76c2.8,0,5.5,2.12,5.5,5.76
		c0,3.49-2.2,6.03-5.5,6.03C416.82,884.56,414.62,882.01,414.62,878.53"/>
	<path class="st2" d="M430.54,874.43c0.91-1.08,2.25-1.67,3.47-1.67c1.76,0,2.85,0.74,3.54,1.67c1.07-0.99,2.58-1.67,3.83-1.67
		c2.47,0,3.72,1.62,3.79,4v7.52h-2v-6.71c0-1.62-0.4-3.24-2.45-3.24c-1.69,0-2.85,0.9-2.85,3.17v6.77h-2v-6.71
		c0-2.12-0.89-3.24-2.52-3.24c-1.69,0-2.78,1.1-2.78,3.26v6.68h-2v-11.25h1.98V874.43z"/>
	<path class="st2" d="M450.89,884.29h-2v-11.25h2V884.29z M448.62,869.32c0-0.56,0.47-1.19,1.27-1.19s1.27,0.63,1.27,1.19
		c0,0.61-0.29,1.37-1.27,1.37C448.91,870.7,448.62,869.93,448.62,869.32"/>
</g>
<polygon points="462.56,873.91 455.99,882.96 462.56,882.96 462.56,884.29 453.21,884.29 453.21,883.63 460.11,874.34 454.5,874.34 
	454.5,873.04 462.56,873.04 "/>
<g>
	<defs>
		<rect id="SVGID_7_" width="1001" height="1001"/>
	</defs>
	<clipPath id="SVGID_8_">
		<use xlink:href="#SVGID_7_"  style="overflow:visible;"/>
	</clipPath>
	<path class="st3" d="M472.07,877.45c0-1.75-0.74-3.24-2.49-3.24c-2.14,0-2.98,1.8-3.05,3.24H472.07z M466.39,878.8
		c-0.02,2.25,1.56,4.32,3.76,4.32c1.03,0,2.27-0.38,3.05-0.97l0.58,1.1c-1.16,0.83-2.54,1.31-3.7,1.31c-3.47,0-5.77-2.16-5.77-6.12
		c0-3.89,2.76-5.67,5.28-5.67c3.38,0,4.52,3.08,4.3,6.03H466.39z"/>
	<path class="st3" d="M484.21,872.81c1.14,2.86,2.29,5.74,3.41,9.13h0.04c1.16-3.4,2.32-6.28,3.5-9.13l1.76,0.43l-5.72,13.03
		c-1.05,2.39-2.43,3.65-4.34,3.65h-1v-1.44h0.78c1.38,0,2.36-0.36,3.94-4.82l-4.36-10.28L484.21,872.81z"/>
	<path class="st3" d="M496.53,878.53c0,2.12,0.71,4.59,3.32,4.59c2.63,0,3.34-2.48,3.34-4.59c0-2.02-0.82-4.32-3.34-4.32
		C497.35,874.21,496.53,876.5,496.53,878.53 M494.37,878.53c0-3.64,2.67-5.76,5.48-5.76c2.81,0,5.5,2.12,5.5,5.76
		c0,3.49-2.2,6.03-5.5,6.03C496.57,884.56,494.37,882.01,494.37,878.53"/>
	<path class="st3" d="M515.74,882.98c-1.14,0.99-2.14,1.58-3.58,1.58c-2.56,0-3.94-1.44-3.94-4.28v-7.24h2v6.79
		c0,2.11,0.89,3.24,2.69,3.24c1.54,0,2.8-1.28,2.8-3.46v-6.57h2v11.25h-1.98V882.98z"/>
	<path class="st3" d="M523.43,874.43l0.8-0.86c0.47-0.47,1.2-0.81,1.67-0.81c0.49,0,1.22,0.36,1.85,1.1l-0.91,1.31
		c-0.49-0.25-0.98-0.47-1.49-0.47c-1.03,0-1.87,1.04-1.87,3.53v6.05h-2v-11.25h1.96V874.43z"/>
	<path class="st3" d="M541.73,874.84c-0.8-0.54-1.45-0.72-2.05-0.72c-0.71,0-1.63,0.34-1.63,1.29c0,0.94,1.02,1.42,2.29,2.38
		c1.42,1.1,2.36,2.03,2.36,3.6c0,1.89-1.85,3.17-3.89,3.17c-1.27,0-2.69-0.56-3.43-1.42l0.98-1.15c0.65,0.61,1.51,1.13,2.4,1.13
		c0.93,0,1.89-0.5,1.89-1.6c0-1.31-1.16-1.87-2.2-2.63c-1.27-0.92-2.38-1.69-2.38-3.22c0-1.78,1.74-2.9,3.7-2.9
		c1.09,0,2.16,0.45,2.74,1.04L541.73,874.84z"/>
	<path class="st3" d="M553.04,882.98c-1.13,0.99-2.14,1.58-3.58,1.58c-2.56,0-3.94-1.44-3.94-4.28v-7.24h2v6.79
		c0,2.11,0.89,3.24,2.69,3.24c1.54,0,2.8-1.28,2.8-3.46v-6.57h2v11.25h-1.98V882.98z"/>
	<path class="st3" d="M567.3,878.35c0-2.05-1.02-4.14-3.09-4.14c-2.27,0-3.5,1.78-3.5,4.68c0,2.16,0.98,4.23,3.47,4.23
		C566.58,883.12,567.3,880.39,567.3,878.35 M558.7,867.75h2v7.04h0.04c0.82-1.35,2.4-2.02,3.65-2.02c4.34,0,5.05,3.94,5.05,5.56
		c0,3.42-2,6.23-5.28,6.23c-1.4,0-2.6-0.67-3.43-1.75h-0.04v1.49h-2V867.75z"/>
	<path class="st3" d="M577.68,874.84c-0.8-0.54-1.45-0.72-2.05-0.72c-0.71,0-1.63,0.34-1.63,1.29c0,0.94,1.02,1.42,2.29,2.38
		c1.43,1.1,2.36,2.03,2.36,3.6c0,1.89-1.85,3.17-3.9,3.17c-1.27,0-2.69-0.56-3.43-1.42l0.98-1.15c0.64,0.61,1.51,1.13,2.4,1.13
		c0.94,0,1.89-0.5,1.89-1.6c0-1.31-1.16-1.87-2.2-2.63c-1.27-0.92-2.38-1.69-2.38-3.22c0-1.78,1.74-2.9,3.7-2.9
		c1.09,0,2.16,0.45,2.74,1.04L577.68,874.84z"/>
	<path class="st3" d="M584.02,873.04h2.92v1.17h-2.92v6.37c0,1.58,0.31,2.52,1.54,2.52c0.74,0,1.16-0.18,1.54-0.38l0.49,1.12
		c-0.69,0.45-1.51,0.72-2.27,0.72c-2.23,0-3.29-1.31-3.29-3.6v-6.75h-1.56v-1.17h1.56v-2.7l2-0.68V873.04z"/>
	<path class="st3" d="M591.64,874.43l0.8-0.86c0.47-0.47,1.2-0.81,1.67-0.81c0.49,0,1.22,0.36,1.85,1.1l-0.91,1.31
		c-0.49-0.25-0.98-0.47-1.49-0.47c-1.03,0-1.87,1.04-1.87,3.53v6.05h-2v-11.25h1.96V874.43z"/>
	<path class="st3" d="M601.86,878.26c-1.76,0.54-2.67,1.4-2.67,2.81c0,1.17,0.8,1.91,1.6,1.91c1.42,0,3.25-1.78,2.98-5.29
		L601.86,878.26z M603.06,883.07c-0.78,0.79-1.76,1.48-2.78,1.48c-1.87,0-3.16-1.35-3.16-3.46c0-1.96,1.65-3.2,3.96-3.89l2.69-0.86
		c-0.09-1.37-1.14-2.25-2.23-2.25c-1.29,0-2.12,0.54-2.92,1.21l-0.78-1.01c1.11-1.08,2.25-1.53,3.81-1.53
		c1.67,0,4.12,0.54,4.12,3.83v4.95c0,0.86,0.11,1.94,0.49,2.75h-2.18c-0.27-0.47-0.31-1.19-0.31-1.91L603.06,883.07z"/>
	<path class="st3" d="M611.91,873.04h2.92v1.17h-2.92v6.37c0,1.58,0.31,2.52,1.54,2.52c0.74,0,1.16-0.18,1.54-0.38l0.49,1.12
		c-0.69,0.45-1.51,0.72-2.27,0.72c-2.23,0-3.3-1.31-3.3-3.6v-6.75h-1.56v-1.17h1.56v-2.7l2-0.68V873.04z"/>
	<path class="st3" d="M624.55,877.45c0-1.75-0.74-3.24-2.49-3.24c-2.14,0-2.98,1.8-3.05,3.24H624.55z M618.88,878.8
		c-0.02,2.25,1.56,4.32,3.76,4.32c1.02,0,2.27-0.38,3.05-0.97l0.58,1.1c-1.16,0.83-2.54,1.31-3.7,1.31c-3.47,0-5.76-2.16-5.76-6.12
		c0-3.89,2.76-5.67,5.27-5.67c3.39,0,4.52,3.08,4.3,6.03H618.88z"/>
	<path class="st3" d="M630.83,881.68c0.76,0,1.43,0.67,1.43,1.44c0,0.74-0.67,1.44-1.4,1.44c-0.78,0-1.45-0.65-1.45-1.44
		C629.41,882.33,630.08,881.68,630.83,881.68"/>
</g>
</svg>
